<?xml version="1.0" standalone="no"?><!-- Generator: Gravit.io --><svg xmlns="http://www.w3.org/2000/svg" xmlns:xlink="http://www.w3.org/1999/xlink" style="isolation:isolate" viewBox="0 0 100 100" width="100" height="100"><path d="M 35.477 71.594 C 42.252 76.862 50.762 80 60 80 C 82.077 80 100 62.077 100 40 C 100 17.923 82.077 0 60 0 C 37.923 0 20 17.923 20 40 C 20 49.238 23.138 57.748 28.406 64.523 L 2.171 90.758 L 2.241 90.829 C 1.966 91.011 1.706 91.223 1.463 91.465 C -0.488 93.417 -0.488 96.585 1.463 98.537 C 3.415 100.488 6.583 100.488 8.535 98.537 C 8.777 98.294 8.989 98.034 9.171 97.759 L 9.242 97.829 L 35.477 71.594 Z M 31.001 40.001 C 31.001 23.996 43.996 11.001 60.001 11.001 C 76.007 11.001 89.001 23.996 89.001 40.001 C 89.001 56.007 76.007 69.001 60.001 69.001 C 43.996 69.001 31.001 56.007 31.001 40.001 Z" style="stroke:none;fill:#000000;stroke-miterlimit:10;"/></svg>